<?xml version="1.0" standalone="no"?>
<!DOCTYPE svg PUBLIC "-//W3C//DTD SVG 20010904//EN"
 "http://www.w3.org/TR/2001/REC-SVG-20010904/DTD/svg10.dtd">
<svg version="1.0" xmlns="http://www.w3.org/2000/svg"
 width="165.000000pt" height="113.000000pt" viewBox="0 0 165.000000 113.000000"
 preserveAspectRatio="xMidYMid meet">

<g transform="translate(0.000000,113.000000) scale(0.100000,-0.100000)"
fill="#000000" stroke="none">
<path d="M845 1070 c-3 -11 -13 -20 -20 -20 -9 0 -22 -27 -35 -71 -12 -39 -37
-105 -55 -146 -39 -84 -37 -89 44 -81 60 6 94 30 122 86 28 56 22 118 -16 168
-16 21 -25 43 -22 55 7 26 -10 35 -18 9z m5 -37 c0 -5 -5 -15 -10 -23 -8 -12
-10 -11 -10 8 0 12 5 22 10 22 6 0 10 -3 10 -7z"/>
<path d="M1300 1069 c-28 -5 -30 -7 -9 -8 14 0 29 -5 35 -10 5 -5 17 -6 26 -2
17 6 17 7 0 16 -9 6 -33 8 -52 4z"/>
<path d="M1476 1064 c-15 -10 -14 -12 4 -17 11 -3 20 -1 20 3 0 5 15 10 33 12
l32 3 -37 6 c-20 3 -43 0 -52 -7z"/>
<path d="M378 1062 c-10 -2 -18 -8 -18 -13 0 -13 27 -11 35 2 9 13 4 16 -17
11z"/>
<path d="M1380 1045 c0 -22 4 -25 35 -25 31 0 35 3 35 25 0 22 -4 25 -35 25
-31 0 -35 -3 -35 -25z m43 -2 c-7 -2 -19 -2 -25 0 -7 3 -2 5 12 5 14 0 19 -2
13 -5z"/>
<path d="M203 1043 c-21 -8 -15 -26 7 -20 24 6 27 -8 5 -21 -25 -14 -3 -62 25
-55 30 8 33 23 15 66 -15 35 -25 41 -52 30z"/>
<path d="M325 1040 c-3 -5 -1 -10 4 -10 6 0 11 5 11 10 0 6 -2 10 -4 10 -3 0
-8 -4 -11 -10z"/>
<path d="M276 1018 c9 -30 12 -34 24 -22 14 14 2 44 -17 44 -10 0 -12 -6 -7
-22z"/>
<path d="M22 1020 c-13 -6 -22 -18 -22 -31 0 -15 4 -19 16 -15 36 14 64 18 64
9 0 -6 -18 -16 -40 -23 -22 -7 -40 -17 -40 -22 0 -12 16 -10 55 6 21 9 37 11
40 5 4 -5 -2 -12 -12 -16 -59 -20 -87 -36 -71 -40 9 -2 33 3 54 12 20 8 39 13
42 10 9 -9 -10 -20 -61 -39 l-47 -18 0 -77 c0 -92 21 -131 70 -131 28 0 29 2
24 33 -3 17 -14 50 -25 72 -28 54 -15 91 41 113 23 8 39 20 37 26 -3 6 -12 37
-22 68 -21 66 -46 80 -103 58z"/>
<path d="M130 1020 c0 -5 5 -10 10 -10 6 0 8 -11 4 -25 -4 -18 -1 -27 10 -31
11 -4 14 -13 11 -25 -7 -20 2 -24 22 -11 20 12 -15 112 -39 112 -10 0 -18 -4
-18 -10z"/>
<path d="M740 1014 c0 -13 -3 -14 -14 -5 -18 15 -49 3 -41 -16 3 -10 1 -13 -8
-10 -19 7 -39 -27 -24 -42 8 -8 8 -11 -1 -11 -7 0 -12 -12 -12 -26 0 -14 4
-23 10 -19 6 3 10 1 10 -4 0 -6 -5 -11 -10 -11 -7 0 -7 -7 0 -21 7 -13 17 -18
27 -15 11 4 13 2 10 -9 -12 -29 12 -25 28 5 12 23 13 34 4 48 -17 27 -3 71 25
78 15 3 27 17 34 40 10 32 9 34 -14 34 -15 0 -24 -6 -24 -16z"/>
<path d="M1408 993 c7 -3 16 -2 19 1 4 3 -2 6 -13 5 -11 0 -14 -3 -6 -6z"/>
<path d="M1370 930 l0 -50 45 0 45 0 0 50 0 50 -45 0 -45 0 0 -50z m17 -22
c-2 -13 -4 -5 -4 17 -1 22 1 32 4 23 2 -10 2 -28 0 -40z m30 0 c-2 -13 -4 -5
-4 17 -1 22 1 32 4 23 2 -10 2 -28 0 -40z m33 23 c0 -17 -4 -33 -10 -36 -6 -4
-10 8 -10 29 0 20 5 36 10 36 6 0 10 -13 10 -29z"/>
<path d="M974 924 c-4 -15 -12 -23 -19 -20 -14 5 -25 -14 -25 -43 0 -31 -57
-99 -94 -112 -20 -7 -36 -16 -36 -19 0 -3 18 -24 40 -45 22 -22 40 -33 40 -25
0 11 3 11 12 2 12 -12 119 -17 130 -6 3 3 -5 28 -19 56 -28 59 -27 92 4 96 15
2 26 -5 37 -25 l15 -28 0 25 c1 45 -11 71 -40 85 -15 8 -32 15 -37 15 -4 0
-16 -25 -26 -55 -15 -47 -36 -82 -36 -58 0 19 42 118 55 127 17 14 29 56 16
56 -6 0 -14 -12 -17 -26z m-60 -180 c3 -8 3 -27 0 -41 -5 -19 -3 -24 7 -21 9
3 13 18 12 37 -1 26 1 30 13 20 21 -17 17 -46 -8 -63 -12 -9 -26 -16 -29 -16
-12 0 -16 33 -7 58 6 17 5 23 -4 19 -7 -2 -13 -16 -13 -30 1 -32 -11 -35 -20
-6 -4 13 0 27 11 40 21 23 30 24 38 3z"/>
<path d="M731 922 c-6 -11 -6 -24 -1 -32 7 -11 11 -8 19 13 13 35 13 37 1 37
-5 0 -14 -8 -19 -18z"/>
<path d="M1385 850 c3 -5 15 -10 25 -10 10 0 22 5 25 10 4 6 -7 10 -25 10 -18
0 -29 -4 -25 -10z"/>
<path d="M81 822 c-9 -17 -9 -27 0 -43 10 -19 13 -20 26 -6 13 13 13 18 0 43
-14 27 -14 27 -26 6z"/>
<path d="M1407 788 c-3 -18 -9 -45 -12 -60 -6 -24 -4 -28 15 -28 20 0 21 3 14
58 -8 69 -10 73 -17 30z m10 -70 c-3 -8 -6 -5 -6 6 -1 11 2 17 5 13 3 -3 4
-12 1 -19z"/>
</g>
</svg>
